<mxfile host="app.diagrams.net" modified="2023-01-24T10:20:01.492Z" agent="5.0 (Macintosh; Intel Mac OS X 10_15_7) AppleWebKit/537.36 (KHTML, like Gecko) Chrome/109.0.0.0 Safari/537.36" etag="oyUSsvsgEu_JzMgSq-SC" version="20.8.10" type="github">
  <diagram name="第 1 页" id="23BdABJTGtFnJXPmn-Zu">
    <mxGraphModel dx="940" dy="1667" grid="1" gridSize="10" guides="1" tooltips="1" connect="1" arrows="1" fold="1" page="1" pageScale="1" pageWidth="827" pageHeight="1169" math="0" shadow="0">
      <root>
        <mxCell id="0" />
        <mxCell id="1" parent="0" />
        <mxCell id="Uh6ZdHYXm-OfIxiDz2Tj-1" value="&lt;h1&gt;&lt;br&gt;&lt;/h1&gt;" style="text;html=1;strokeColor=none;fillColor=none;spacing=5;spacingTop=-20;whiteSpace=wrap;overflow=hidden;rounded=0;fontSize=20;fontFamily=Architects Daughter;" vertex="1" parent="1">
          <mxGeometry x="100" y="-50" width="190" height="120" as="geometry" />
        </mxCell>
        <mxCell id="Uh6ZdHYXm-OfIxiDz2Tj-2" value="tour" style="rounded=1;whiteSpace=wrap;html=1;strokeWidth=2;fillWeight=4;hachureGap=8;hachureAngle=45;fillColor=none;sketch=1;jiggle=2;curveFitting=1;fontFamily=Verdana;fontSize=20;" vertex="1" parent="1">
          <mxGeometry x="380" y="120" width="170" height="60" as="geometry" />
        </mxCell>
        <mxCell id="Uh6ZdHYXm-OfIxiDz2Tj-3" value="tour_dest" style="rounded=1;whiteSpace=wrap;html=1;strokeWidth=2;fillWeight=4;hachureGap=8;hachureAngle=45;fillColor=none;sketch=1;jiggle=2;curveFitting=1;fontFamily=Verdana;fontSize=20;" vertex="1" parent="1">
          <mxGeometry x="110" y="120" width="120" height="60" as="geometry" />
        </mxCell>
        <mxCell id="Uh6ZdHYXm-OfIxiDz2Tj-4" value="tour_order" style="rounded=1;whiteSpace=wrap;html=1;strokeWidth=2;fillWeight=4;hachureGap=8;hachureAngle=45;fillColor=none;sketch=1;jiggle=2;curveFitting=1;fontFamily=Verdana;fontSize=20;" vertex="1" parent="1">
          <mxGeometry x="560" y="120" width="150" height="60" as="geometry" />
        </mxCell>
        <mxCell id="Uh6ZdHYXm-OfIxiDz2Tj-5" value="中间页" style="shape=ext;double=1;whiteSpace=wrap;html=1;aspect=fixed;sketch=1;hachureGap=4;jiggle=2;curveFitting=1;fontFamily=Verdana;fontSize=20;fillColor=none;" vertex="1" parent="1">
          <mxGeometry x="135" y="195" width="70" height="70" as="geometry" />
        </mxCell>
        <mxCell id="Uh6ZdHYXm-OfIxiDz2Tj-6" value="列表" style="shape=ext;double=1;whiteSpace=wrap;html=1;aspect=fixed;sketch=1;hachureGap=4;jiggle=2;curveFitting=1;fontFamily=Verdana;fontSize=20;fillColor=none;" vertex="1" parent="1">
          <mxGeometry x="260" y="195" width="80" height="80" as="geometry" />
        </mxCell>
        <mxCell id="Uh6ZdHYXm-OfIxiDz2Tj-7" value="search" style="rounded=1;whiteSpace=wrap;html=1;strokeWidth=2;fillWeight=4;hachureGap=8;hachureAngle=45;fillColor=none;sketch=1;jiggle=2;curveFitting=1;fontFamily=Verdana;fontSize=20;" vertex="1" parent="1">
          <mxGeometry x="240" y="120" width="120" height="60" as="geometry" />
        </mxCell>
        <mxCell id="Uh6ZdHYXm-OfIxiDz2Tj-8" value="详情" style="shape=ext;double=1;whiteSpace=wrap;html=1;aspect=fixed;sketch=1;hachureGap=4;jiggle=2;curveFitting=1;fontFamily=Verdana;fontSize=20;fillColor=none;" vertex="1" parent="1">
          <mxGeometry x="380" y="195" width="80" height="80" as="geometry" />
        </mxCell>
        <mxCell id="Uh6ZdHYXm-OfIxiDz2Tj-9" value="资源" style="shape=ext;double=1;whiteSpace=wrap;html=1;aspect=fixed;sketch=1;hachureGap=4;jiggle=2;curveFitting=1;fontFamily=Verdana;fontSize=20;fillColor=none;" vertex="1" parent="1">
          <mxGeometry x="470" y="195" width="80" height="80" as="geometry" />
        </mxCell>
        <mxCell id="Uh6ZdHYXm-OfIxiDz2Tj-10" value="填写" style="shape=ext;double=1;whiteSpace=wrap;html=1;aspect=fixed;sketch=1;hachureGap=4;jiggle=2;curveFitting=1;fontFamily=Verdana;fontSize=20;fillColor=none;" vertex="1" parent="1">
          <mxGeometry x="600" y="195" width="80" height="80" as="geometry" />
        </mxCell>
        <mxCell id="Uh6ZdHYXm-OfIxiDz2Tj-11" value="tour" style="rounded=1;whiteSpace=wrap;html=1;strokeWidth=2;fillWeight=4;hachureGap=8;hachureAngle=45;fillColor=none;sketch=1;jiggle=2;curveFitting=1;fontFamily=Verdana;fontSize=20;" vertex="1" parent="1">
          <mxGeometry x="384" y="300" width="170" height="60" as="geometry" />
        </mxCell>
        <mxCell id="Uh6ZdHYXm-OfIxiDz2Tj-13" value="tour_order" style="rounded=1;whiteSpace=wrap;html=1;strokeWidth=2;fillWeight=4;hachureGap=8;hachureAngle=45;fillColor=none;sketch=1;jiggle=2;curveFitting=1;fontFamily=Verdana;fontSize=20;" vertex="1" parent="1">
          <mxGeometry x="564" y="300" width="150" height="60" as="geometry" />
        </mxCell>
        <mxCell id="Uh6ZdHYXm-OfIxiDz2Tj-14" value="rn_tour_search" style="rounded=1;whiteSpace=wrap;html=1;strokeWidth=2;fillWeight=4;hachureGap=8;hachureAngle=45;fillColor=none;sketch=1;jiggle=2;curveFitting=1;fontFamily=Verdana;fontSize=20;" vertex="1" parent="1">
          <mxGeometry x="110" y="300" width="254" height="60" as="geometry" />
        </mxCell>
        <mxCell id="Uh6ZdHYXm-OfIxiDz2Tj-15" value="中间页" style="shape=ext;double=1;whiteSpace=wrap;html=1;aspect=fixed;sketch=1;hachureGap=4;jiggle=2;curveFitting=1;fontFamily=Verdana;fontSize=20;fillColor=none;" vertex="1" parent="1">
          <mxGeometry x="131" y="380" width="70" height="70" as="geometry" />
        </mxCell>
        <mxCell id="Uh6ZdHYXm-OfIxiDz2Tj-16" value="列表" style="shape=ext;double=1;whiteSpace=wrap;html=1;aspect=fixed;sketch=1;hachureGap=4;jiggle=2;curveFitting=1;fontFamily=Verdana;fontSize=20;fillColor=none;" vertex="1" parent="1">
          <mxGeometry x="256" y="380" width="80" height="80" as="geometry" />
        </mxCell>
        <mxCell id="Uh6ZdHYXm-OfIxiDz2Tj-17" value="详情" style="shape=ext;double=1;whiteSpace=wrap;html=1;aspect=fixed;sketch=1;hachureGap=4;jiggle=2;curveFitting=1;fontFamily=Verdana;fontSize=20;fillColor=none;" vertex="1" parent="1">
          <mxGeometry x="376" y="380" width="80" height="80" as="geometry" />
        </mxCell>
        <mxCell id="Uh6ZdHYXm-OfIxiDz2Tj-18" value="资源" style="shape=ext;double=1;whiteSpace=wrap;html=1;aspect=fixed;sketch=1;hachureGap=4;jiggle=2;curveFitting=1;fontFamily=Verdana;fontSize=20;fillColor=none;" vertex="1" parent="1">
          <mxGeometry x="466" y="380" width="80" height="80" as="geometry" />
        </mxCell>
        <mxCell id="Uh6ZdHYXm-OfIxiDz2Tj-19" value="填写" style="shape=ext;double=1;whiteSpace=wrap;html=1;aspect=fixed;sketch=1;hachureGap=4;jiggle=2;curveFitting=1;fontFamily=Verdana;fontSize=20;fillColor=none;" vertex="1" parent="1">
          <mxGeometry x="596" y="380" width="80" height="80" as="geometry" />
        </mxCell>
        <mxCell id="Uh6ZdHYXm-OfIxiDz2Tj-20" value="tour" style="rounded=1;whiteSpace=wrap;html=1;strokeWidth=2;fillWeight=4;hachureGap=8;hachureAngle=45;fillColor=none;sketch=1;jiggle=2;curveFitting=1;fontFamily=Verdana;fontSize=20;" vertex="1" parent="1">
          <mxGeometry x="110" y="485" width="440" height="60" as="geometry" />
        </mxCell>
        <mxCell id="Uh6ZdHYXm-OfIxiDz2Tj-21" value="tour_order" style="rounded=1;whiteSpace=wrap;html=1;strokeWidth=2;fillWeight=4;hachureGap=8;hachureAngle=45;fillColor=none;sketch=1;jiggle=2;curveFitting=1;fontFamily=Verdana;fontSize=20;" vertex="1" parent="1">
          <mxGeometry x="560" y="485" width="150" height="60" as="geometry" />
        </mxCell>
      </root>
    </mxGraphModel>
  </diagram>
</mxfile>
